<svg data-v-0dd9719b="" version="1.0" xmlns="http://www.w3.org/2000/svg" xmlns:xlink="http://www.w3.org/1999/xlink" width="100%" height="100%" viewBox="0 0 340.000000 250.000000" preserveAspectRatio="xMidYMid meet" color-interpolation-filters="sRGB" style="margin: auto;"> <rect data-v-0dd9719b="" x="0" y="0" width="100%" height="100%" fill="#fff" fill-opacity="1" class="background"></rect> <rect data-v-0dd9719b="" x="0" y="0" width="100%" height="100%" fill="url(#watermark)" fill-opacity="1" class="watermarklayer"></rect> <g data-v-0dd9719b="" fill="#333" class="icon-text-wrapper icon-svg-group iconsvg" transform="translate(48.209999084472656,94.95583534240723)"><g class="iconsvg-imagesvg" transform="translate(0,0)"><g><rect fill="#333" fill-opacity="0" stroke-width="2" x="0" y="0" width="60" height="60.08832984487196" class="image-rect"></rect> <svg x="0" y="0" width="60" height="60.08832984487196" filtersec="colorsb330374619" class="image-svg-svg primary" style="overflow: visible;"><svg xmlns="http://www.w3.org/2000/svg" viewBox="-0.001293182373046875 0.002758026123046875 99.85157775878906 99.99821472167969"><g fill-rule="evenodd"><path d="M46.48 18.63l1.23-.71.62-.35.49-.27C81.4-.63 110.38 7.82 87.5 44.17c-.64 1-1.33 2.08-2.06 3.15-.86-1.47-1.76-2.94-2.73-4.41l-.34-.68q1-1.53 1.86-2.91c12.24-21-17.45-17.65-50.13 3.41l-1-2a29.42 29.42 0 0 1-1.46-3.48c-.79-2.27-1.44-4.44-1.93-6.47a112.67 112.67 0 0 1 12.8-9.7l1.49-.94.62-.38c.62-.39 1.23-.76 1.85-1.12zM18.59 53.76a109.86 109.86 0 0 0 12.85 17.76 47.53 47.53 0 0 0 8.69-3.3l2.92-1.46a141.32 141.32 0 0 1-13.54-26.32 74.21 74.21 0 0 1-3.22-10.75C23.38 15.68 28 8.86 41.72 17.92q2.53-1.61 5.11-3.05C10.23-9.6.2 16.24 15.34 47.61q1.47 3.05 3.25 6.15zm51.86 16.73c-.32-1.29-.71-2.69-1.19-4.23a48.42 48.42 0 0 0-2.76-6.82l-.45-.89c-34.1 22-64.95 24.71-48.27.51a94.943 94.943 0 0 1-3.12-5c-25.42 37.37.92 47.55 32.69 32a98.59 98.59 0 0 0 11.13-6.41 111 111 0 0 0 11.97-9.16zm11.11-23a110.89 110.89 0 0 0-12.84-17.74q-2.58.7-5.51 1.72l-6.1 3A141.2 141.2 0 0 1 70.7 61c.07.19.14.37.2.56s.19.49.27.73.2.56.29.83c.34 1 .65 1.91.93 2.83.06.18.11.36.16.54l.14.47c.06.22.13.44.19.65.05.17.1.34.14.51.33 1.21.61 2.37.84 3.49 2.91 14-1.73 20.8-15.42 11.75l-5.11 3C89.93 110.87 100 85 84.82 53.67q-1.47-3.04-3.26-6.14z" fill="#15355c"></path><path d="M49 13.47l-.48.27c-1.19-.79-2.35-1.53-3.48-2.21.61-.38 1.22-.75 1.83-1.1l1.23-.7.62-.36.49-.27C75.2-5.2 98.87-2.75 95.86 17.22 94.9 1.36 72.93.31 49 13.47zM10 53.22c.65 1.12 1.33 2.24 2 3.37.67-1.07 1.38-2.16 2.14-3.28q-1.74-3-3.18-6C.34 25.12 2.21 5.71 17.15 4.88-1.61 2.1-4.85 23 6.79 47.07q1.47 3.05 3.26 6.15zm37 36.6c-20.31 9.93-38.39 9.36-42.17-2.1 1.39 14.46 20.81 16.06 42.85 5.28 2.33-1.14 4.68-2.41 7.06-3.83q-1.43-.87-2.91-1.86-2.41 1.34-4.83 2.51zM93 54.1q-1.47-3-3.26-6.14l-1-1.67-.11.17c-.63 1-1.31 2-2 3.08.8 1.46 1.55 2.92 2.25 4.36 10.71 22.19 8.82 41.62-6.17 42.41C101.47 99 104.69 78.19 93.06 54.1z" fill="#009ed6"></path></g></svg></svg> <!----></g></g> <g transform="translate(67,18.84916400909424)"><g data-gra="path-name" fill-rule="" class="tp-name iconsvg-namesvg"><g transform="scale(1)"><g><path d="M16.3 0L11.06 0 6.9-14.65 6.78-14.65Q7.07-10.91 7.07-8.84L7.07-8.84 7.07 0 2.2 0 2.2-20.34 9.52-20.34 13.76-5.9 13.87-5.9 18.03-20.34 25.37-20.34 25.37 0 20.32 0 20.32-8.92Q20.32-9.62 20.34-10.46 20.36-11.31 20.53-14.63L20.53-14.63 20.4-14.63 16.3 0ZM44.49-7.92L44.49-7.92Q44.49-4.05 42.41-1.89 40.33 0.28 36.58 0.28L36.58 0.28Q32.99 0.28 30.87-1.93 28.75-4.15 28.75-7.92L28.75-7.92Q28.75-11.77 30.83-13.91 32.91-16.04 36.67-16.04L36.67-16.04Q38.99-16.04 40.77-15.06 42.55-14.07 43.52-12.22 44.49-10.38 44.49-7.92ZM34.27-7.92L34.27-7.92Q34.27-5.89 34.82-4.82 35.36-3.76 36.64-3.76L36.64-3.76Q37.91-3.76 38.43-4.82 38.95-5.89 38.95-7.92L38.95-7.92Q38.95-9.94 38.42-10.97 37.89-12 36.61-12L36.61-12Q35.36-12 34.82-10.97 34.27-9.95 34.27-7.92ZM62.98 0L57.54 0 57.54-8.6Q57.54-10.17 57.09-10.97 56.64-11.77 55.64-11.77L55.64-11.77Q54.26-11.77 53.65-10.67 53.03-9.57 53.03-6.9L53.03-6.9 53.03 0 47.59 0 47.59-15.77 51.7-15.77 52.38-13.82 52.7-13.82Q53.39-14.93 54.63-15.49 55.86-16.04 57.46-16.04L57.46-16.04Q60.07-16.04 61.53-14.53 62.98-13.01 62.98-10.26L62.98-10.26 62.98 0ZM74.41-4.02L74.41-4.02Q75.51-4.02 77.04-4.56L77.04-4.56 77.04-0.6Q75.94-0.13 74.94 0.08 73.95 0.28 72.61 0.28L72.61 0.28Q69.87 0.28 68.66-1.06 67.45-2.41 67.45-5.19L67.45-5.19 67.45-11.69 65.54-11.69 65.54-13.9 67.96-15.61 69.37-18.93 72.93-18.93 72.93-15.77 76.8-15.77 76.8-11.69 72.93-11.69 72.93-5.55Q72.93-4.02 74.41-4.02ZM87.4 0.28L87.4 0.28Q83.47 0.28 81.29-1.82 79.11-3.91 79.11-7.78L79.11-7.78Q79.11-11.77 81.13-13.91 83.15-16.04 86.89-16.04L86.89-16.04Q90.45-16.04 92.39-14.19 94.33-12.33 94.33-8.84L94.33-8.84 94.33-6.42 84.61-6.42Q84.66-5.09 85.57-4.34 86.49-3.59 88.06-3.59L88.06-3.59Q89.49-3.59 90.7-3.86 91.9-4.13 93.3-4.79L93.3-4.79 93.3-0.88Q92.02-0.22 90.66 0.03 89.3 0.28 87.4 0.28ZM87.08-12.34L87.08-12.34Q86.12-12.34 85.48-11.74 84.83-11.13 84.72-9.84L84.72-9.84 89.39-9.84Q89.37-10.98 88.75-11.66 88.13-12.34 87.08-12.34ZM104.59 0.28L104.59 0.28Q100.72 0.28 98.73-1.81 96.73-3.9 96.73-7.81L96.73-7.81Q96.73-11.73 98.89-13.89 101.04-16.04 105.02-16.04L105.02-16.04Q107.76-16.04 110.18-14.85L110.18-14.85 108.58-10.83Q107.6-11.26 106.76-11.52 105.93-11.77 105.02-11.77L105.02-11.77Q103.7-11.77 102.98-10.74 102.25-9.71 102.25-7.83L102.25-7.83Q102.25-4.05 105.05-4.05L105.05-4.05Q107.44-4.05 109.64-5.44L109.64-5.44 109.64-1.11Q107.54 0.28 104.59 0.28ZM122.29-16.04L122.29-16.04Q123-16.04 123.64-15.93L123.64-15.93 123.95-15.88 123.46-10.74Q122.79-10.91 121.61-10.91L121.61-10.91Q119.83-10.91 119.02-10.1 118.21-9.28 118.21-7.75L118.21-7.75 118.21 0 112.77 0 112.77-15.77 116.82-15.77 117.67-13.25 117.94-13.25Q118.62-14.5 119.84-15.27 121.05-16.04 122.29-16.04ZM131.61-15.77L131.61 0 126.17 0 126.17-15.77 131.61-15.77ZM126.03-19.69L126.03-19.69Q126.03-20.92 126.72-21.51 127.4-22.11 128.92-22.11L128.92-22.11Q130.43-22.11 131.13-21.5 131.82-20.89 131.82-19.69L131.82-19.69Q131.82-17.3 128.92-17.3L128.92-17.3Q126.03-17.3 126.03-19.69ZM147.59-4.84L147.59-4.84Q147.59-2.31 145.86-1.02 144.14 0.28 140.91 0.28L140.91 0.28Q139.16 0.28 137.86 0.09 136.57-0.1 135.22-0.6L135.22-0.6 135.22-4.95Q136.49-4.4 138-4.04 139.51-3.67 140.69-3.67L140.69-3.67Q142.46-3.67 142.46-4.48L142.46-4.48Q142.46-4.9 141.96-5.23 141.47-5.55 139.09-6.5L139.09-6.5Q136.92-7.39 136.05-8.52 135.19-9.66 135.19-11.4L135.19-11.4Q135.19-13.6 136.89-14.82 138.59-16.04 141.69-16.04L141.69-16.04Q143.25-16.04 144.62-15.7 145.99-15.36 147.47-14.71L147.47-14.71 145.99-11.2Q144.9-11.69 143.69-12.03 142.48-12.37 141.72-12.37L141.72-12.37Q140.38-12.37 140.38-11.72L140.38-11.72Q140.38-11.31 140.85-11.03 141.31-10.74 143.54-9.87L143.54-9.87Q145.2-9.18 146.01-8.53 146.82-7.88 147.21-6.99 147.59-6.11 147.59-4.84ZM158.33-4.02L158.33-4.02Q159.43-4.02 160.96-4.56L160.96-4.56 160.96-0.6Q159.86-0.13 158.87 0.08 157.87 0.28 156.54 0.28L156.54 0.28Q153.8 0.28 152.59-1.06 151.38-2.41 151.38-5.19L151.38-5.19 151.38-11.69 149.47-11.69 149.47-13.9 151.89-15.61 153.3-18.93 156.86-18.93 156.86-15.77 160.73-15.77 160.73-11.69 156.86-11.69 156.86-5.55Q156.86-4.02 158.33-4.02ZM178.78-7.92L178.78-7.92Q178.78-4.05 176.7-1.89 174.61 0.28 170.87 0.28L170.87 0.28Q167.28 0.28 165.16-1.93 163.04-4.15 163.04-7.92L163.04-7.92Q163.04-11.77 165.12-13.91 167.2-16.04 170.95-16.04L170.95-16.04Q173.28-16.04 175.06-15.06 176.84-14.07 177.81-12.22 178.78-10.38 178.78-7.92ZM168.56-7.92L168.56-7.92Q168.56-5.89 169.1-4.82 169.65-3.76 170.93-3.76L170.93-3.76Q172.19-3.76 172.72-4.82 173.24-5.89 173.24-7.92L173.24-7.92Q173.24-9.94 172.71-10.97 172.18-12 170.9-12L170.9-12Q169.65-12 169.1-10.97 168.56-9.95 168.56-7.92Z" transform="translate(-2.200000047683716, 22.110000610351562)"></path></g> <!----> <!----> <!----> <!----> <!----> <!----> <!----></g></g> <!----></g></g><defs v-gra="od"></defs></svg>